<?xml version="1.0" encoding="UTF-8"?>
<svg width="220px" height="98px" viewBox="0 0 220 98" version="1.1" xmlns="http://www.w3.org/2000/svg" xmlns:xlink="http://www.w3.org/1999/xlink">
    <!-- Generator: Sketch 52.2 (67145) - http://www.bohemiancoding.com/sketch -->
    <title>lucinda-v2.0</title>
    <desc>Created with Sketch.</desc>
    <g id="Page-4" stroke="none" stroke-width="1" fill="none" fill-rule="evenodd">
        <g id="lucinda-v2.0" transform="translate(1.000000, -24.000000)">
            <g id="L" transform="translate(1.000000, 96.000000)">
                <path d="M26,-21 L26,-21 C27.1045695,-21 28,-20.1045695 28,-19 L28,29 C28,30.1045695 27.1045695,31 26,31 L26,31 C24.8954305,31 24,30.1045695 24,29 L24,-19 C24,-20.1045695 24.8954305,-21 26,-21 Z" id="Rectangle" stroke="#A57EC6" stroke-width="3.5" fill="#A57EC6" stroke-linecap="round" stroke-dasharray="1,1" transform="translate(26.000000, 5.000000) rotate(90.000000) translate(-26.000000, -5.000000) "></path>
                <g id="Group" transform="translate(67.188317, 15.010404) rotate(-57.000000) translate(-67.188317, -15.010404) translate(58.688317, 1.510404)">
                    <path d="M8.5,0 L17,20 L0,20 L8.5,0 Z" id="Triangle" fill="#A57EC6"></path>
                    <path d="M8.5,22.5 L8.5,27" id="Line" stroke="#A57EC6" stroke-width="4" stroke-linecap="round"></path>
                </g>
            </g>
            <text id="UCINDA" font-family="Optima-Regular, Optima" font-size="65" font-weight="normal" fill="#3B82C2">
                <tspan x="29.255" y="80">ucinda</tspan>
            </text>
            <text id="L" font-family="Optima-Regular, Optima" font-size="102" font-weight="normal" fill="#3B82C2">
                <tspan x="0" y="94">L</tspan>
            </text>
        </g>
    </g>
</svg>